<svg width="168" height="78" viewBox="0 0 168 78" fill="none" xmlns="http://www.w3.org/2000/svg">
<path d="M167.319 0V70.4224C152.856 71.8678 132.911 71.3432 105.896 66.1811C52.5533 55.9908 16.8706 65.0147 0.680664 71.0865V0H167.319Z" fill="#6327FE"/>
<path d="M167.319 70.4224V77.7163C152.8 78.6594 132.838 77.4317 105.929 71.2818C53.0674 59.1997 17.1109 66.8954 0.680664 72.3868V71.0865C16.8706 65.0147 52.5533 55.9908 105.896 66.1811C132.911 71.3432 152.856 71.8678 167.319 70.4224Z" fill="white"/>
<path d="M56.0858 11.418C57.0359 11.418 57.7624 11.7585 58.271 12.4337C58.6789 12.9695 58.8857 13.6224 58.8857 14.3869C58.8857 15.7598 58.4274 17.3224 57.5053 19.0747C56.7006 20.5871 55.6947 21.9432 54.4875 23.1486C53.694 23.9243 53.0736 24.3149 52.621 24.3149C52.3248 24.3149 52.0454 24.1643 51.7939 23.8685C51.6094 23.6564 51.52 23.4165 51.52 23.1486C51.52 22.6519 51.9503 22.0883 52.8166 21.4521C54.0349 20.548 55.0017 19.5602 55.7282 18.4832C56.79 16.9261 57.3209 15.6147 57.3209 14.5376C57.3209 14.1023 57.2259 13.7731 57.0359 13.561C56.8459 13.3489 56.5609 13.2429 56.1753 13.2429C55.3985 13.2429 54.2919 13.8066 52.8613 14.9394C51.235 16.2118 49.5138 17.9418 47.7031 20.135C45.395 22.9198 43.6402 25.6599 42.4387 28.3609C41.1925 31.1624 40.5721 33.5509 40.5721 35.5265C40.5721 36.4752 40.846 37.2788 41.3992 37.9429C42.0084 38.6907 42.7517 39.0646 43.6291 39.0646C45.1603 39.0646 47.0828 37.876 49.402 35.5042C50.095 34.7843 50.9388 33.7351 51.928 32.3678C52.5818 31.4917 52.9954 30.8666 53.1798 30.5039C53.3922 30.0965 53.6381 29.89 53.9231 29.89C54.236 29.89 54.3869 30.0407 54.3869 30.3365C54.3869 30.9727 53.5934 32.4013 52.0118 34.6224C50.6929 36.4752 49.2455 37.9876 47.6584 39.1595C45.8756 40.4765 44.1879 41.1295 42.6064 41.1295C40.9522 41.1295 39.6668 40.3872 38.7615 38.9028C38.1802 37.9541 37.8896 36.877 37.8896 35.6604C37.8896 32.6078 39.3315 28.7571 42.2207 24.1029C44.6853 20.1462 47.2839 16.9596 50.0167 14.5376C52.3751 12.456 54.4037 11.418 56.0858 11.418Z" fill="white"/>
<path d="M63.3289 25.0069C64.4913 25.0069 65.0725 25.7157 65.0725 27.1276C65.0725 29.0083 64.2007 31.3912 62.4627 34.2708C60.5682 37.396 58.7351 38.9586 56.9636 38.9586C56.1421 38.9586 55.5441 38.5791 55.1585 37.8146C54.9629 37.4351 54.8623 36.9719 54.8623 36.4361C54.8623 34.628 55.4826 32.6636 56.7289 30.543C57.8913 28.5786 59.2549 27.0495 60.8253 25.9612C61.7418 25.325 62.5745 25.0069 63.3289 25.0069ZM61.1214 33.0208C60.7694 32.7362 60.5905 32.5185 60.5905 32.3623C60.5905 32.2506 60.8141 31.9381 61.2723 31.4303C62.5465 30.0016 63.1836 28.852 63.1836 27.9759C63.1836 27.8642 63.1501 27.7526 63.0774 27.6354C62.9657 27.4234 62.7868 27.3173 62.5465 27.3173C62.0938 27.3173 61.4288 27.7582 60.5514 28.6344C59.4169 29.7673 58.5563 30.9336 57.9583 32.1335C57.2654 33.5063 56.9189 34.6448 56.9189 35.5488C56.9189 35.7888 56.9804 36.0008 57.1089 36.185C57.2933 36.4417 57.528 36.5645 57.8075 36.5645C58.4893 36.5645 59.2158 36.0567 59.9926 35.0354C60.3335 34.6113 60.6073 34.176 60.8197 33.7184C61.032 33.2719 61.1326 33.0375 61.1214 33.0208Z" fill="white"/>
<path d="M68.6991 31.6479C68.2744 32.7529 67.9558 33.6402 67.7435 34.3211C67.5311 35.0019 67.4249 35.4707 67.4249 35.7441C67.4249 36.0957 67.5926 36.2743 67.9335 36.2743C68.442 36.2743 69.1015 35.7944 69.9062 34.8345C70.2862 34.3657 70.8563 33.5286 71.6051 32.312C71.9013 31.8321 72.2143 31.5921 72.5384 31.5921C72.9072 31.5921 73.0917 31.7707 73.0917 32.1223C73.0917 32.7306 72.3931 33.9583 70.9904 35.8111C69.5318 37.7476 68.1794 38.7186 66.9331 38.7186C66.3966 38.7186 65.9551 38.4954 65.6142 38.0378C65.3739 37.7141 65.251 37.3179 65.251 36.8491C65.251 36.0567 65.4913 34.9628 65.9719 33.5621C66.4525 32.1614 67.1678 30.4593 68.1179 28.4502C70.5545 23.3495 73.0358 19.1417 75.573 15.8323C77.596 13.1759 79.2725 11.8477 80.6026 11.8477C81.0273 11.8477 81.3738 12.0096 81.6421 12.3333C81.9271 12.6569 82.0668 13.0308 82.0668 13.455C82.0668 15.4361 80.2953 18.7287 76.7577 23.3383C75.1706 25.3864 73.2761 27.4401 71.0686 29.4882C70.4986 30.0184 69.705 30.7383 68.6991 31.6479ZM70.208 28.2716C73.1531 25.7548 75.7853 22.5738 78.1045 18.7287C79.3061 16.7364 79.9096 15.4138 79.9096 14.7664C79.9096 14.4539 79.7755 14.2977 79.5073 14.2977C78.7305 14.2977 77.311 15.8435 75.26 18.9408C73.5611 21.4911 71.879 24.5996 70.208 28.2716Z" fill="white"/>
<path d="M80.804 35.1861C80.3346 36.0064 79.8763 36.6984 79.4236 37.2621C78.5295 38.367 77.6465 38.914 76.7691 38.914C76.0035 38.914 75.4111 38.5512 74.9864 37.8313C74.7181 37.3625 74.584 36.8156 74.584 36.1794C74.584 34.6113 75.0814 32.8813 76.0705 30.9838C77.177 28.8799 78.5071 27.2615 80.0607 26.1287C81.0778 25.392 82.0614 25.0237 83.0115 25.0237C83.6038 25.0237 84.1012 25.2079 84.498 25.5762C84.8389 25.8999 85.0066 26.2682 85.0066 26.6811C85.0066 26.9937 84.8836 27.4234 84.6433 27.9759C84.8557 28.2716 84.9619 28.5339 84.9619 28.7627C84.9619 29.0585 84.7663 29.5496 84.3695 30.2249C83.9559 30.9169 83.548 31.8377 83.14 32.9817C82.6985 34.1983 82.4805 35.1749 82.4805 35.906C82.4805 36.4975 82.6594 36.9886 83.0115 37.3681C83.1121 37.4686 83.4027 37.6304 83.8833 37.8536C84.2353 38.021 84.4142 38.3224 84.4142 38.7465C84.4142 39.0144 84.3136 39.2321 84.118 39.4051C83.9056 39.5892 83.6597 39.6785 83.3747 39.6785C82.6091 39.6785 81.9496 39.3381 81.402 38.6628C80.9493 38.1103 80.7202 37.4183 80.7202 36.5868C80.7202 36.3022 80.7481 35.839 80.804 35.1861ZM83.4585 28.2102C83.2909 27.8977 83.1065 27.6689 82.9053 27.5238C82.7041 27.3731 82.4917 27.3006 82.2682 27.3006C81.1896 27.3006 80.0216 28.2382 78.7642 30.1188C77.3782 32.1948 76.6853 33.9583 76.6853 35.3981C76.6853 35.7497 76.7523 36.0176 76.8864 36.2018C77.0206 36.3859 77.2218 36.4752 77.49 36.4752C78.1718 36.4752 78.9598 35.7553 79.8651 34.3099C80.3737 33.5175 81.0052 32.3511 81.754 30.8108C82.2514 29.8063 82.6091 29.1422 82.8382 28.8185C82.9556 28.6567 83.1568 28.4502 83.4585 28.2102Z" fill="white"/>
<path d="M99.162 19.3537C100.112 19.3537 100.839 19.6942 101.347 20.3694C101.755 20.9052 101.962 21.5581 101.962 22.3226C101.962 23.6955 101.504 25.2581 100.582 27.0104C99.7768 28.5228 98.7708 29.8789 97.5637 31.0843C96.7701 31.86 96.1498 32.2506 95.6972 32.2506C95.401 32.2506 95.1215 32.1 94.87 31.8042C94.6856 31.5921 94.5962 31.3522 94.5962 31.0843C94.5962 30.5876 95.0265 30.024 95.8927 29.3878C97.111 28.4837 98.0779 27.4959 98.8044 26.4189C99.8662 24.8619 100.397 23.5504 100.397 22.4733C100.397 22.038 100.302 21.7088 100.112 21.4967C99.9221 21.2846 99.6371 21.1786 99.2514 21.1786C98.4746 21.1786 97.3681 21.7423 95.9375 22.8751C94.3112 24.1475 92.5899 25.8775 90.7793 28.0707C88.4712 30.8555 86.7164 33.5956 85.5149 36.2966C84.2686 39.0981 83.6483 41.4866 83.6483 43.4622C83.6483 44.4109 83.9221 45.2145 84.4754 45.8786C85.0846 46.6264 85.8278 47.0003 86.7052 47.0003C88.2365 47.0003 90.1589 45.8117 92.4782 43.4399C93.1711 42.72 94.015 41.6708 95.0042 40.3035C95.658 39.4274 96.0716 38.8023 96.256 38.4396C96.4684 38.0322 96.7143 37.8257 96.9993 37.8257C97.3122 37.8257 97.4631 37.9764 97.4631 38.2722C97.4631 38.9084 96.6695 40.337 95.088 42.5581C93.7691 44.4109 92.3217 45.9233 90.7345 47.0952C88.9518 48.4122 87.2641 49.0652 85.6825 49.0652C84.0283 49.0652 82.743 48.323 81.8376 46.8385C81.2564 45.8898 80.9658 44.8127 80.9658 43.5961C80.9658 40.5435 82.4077 36.6929 85.2969 32.0386C87.7615 28.0819 90.3601 24.8953 93.0929 22.4733C95.4513 20.3917 97.4743 19.3537 99.162 19.3537Z" fill="white"/>
<path d="M106.467 33C107.629 33 108.21 33.7087 108.21 35.1207C108.21 37.0013 107.338 39.3843 105.6 42.2639C103.706 45.3891 101.873 46.9517 100.101 46.9517C99.2798 46.9517 98.6818 46.5722 98.2962 45.8076C98.1006 45.4281 98 44.9649 98 44.4292C98 42.6211 98.6203 40.6567 99.8666 38.536C101.029 36.5716 102.393 35.0425 103.963 33.9543C104.885 33.3181 105.718 33 106.467 33ZM104.259 41.0138C103.907 40.7292 103.728 40.5116 103.728 40.3553C103.728 40.2437 103.952 39.9312 104.41 39.4233C105.684 37.9947 106.321 36.8451 106.321 35.9689C106.321 35.8573 106.288 35.7457 106.215 35.6285C106.103 35.4164 105.925 35.3104 105.684 35.3104C105.232 35.3104 104.566 35.7513 103.689 36.6274C102.555 37.7603 101.694 38.9267 101.096 40.1265C100.403 41.4993 100.057 42.6378 100.057 43.5419C100.057 43.7818 100.118 43.9939 100.247 44.1781C100.431 44.4348 100.666 44.5575 100.945 44.5575C101.627 44.5575 102.353 44.0497 103.13 43.0284C103.471 42.6043 103.745 42.169 103.957 41.7114C104.175 41.2594 104.276 41.025 104.259 41.0138Z" fill="white"/>
<path d="M111.776 39.5836C111.352 40.6886 111.033 41.5759 110.821 42.2568C110.608 42.9376 110.502 43.4064 110.502 43.6798C110.502 44.0314 110.67 44.21 111.011 44.21C111.519 44.21 112.179 43.7301 112.983 42.7702C113.363 42.3014 113.933 41.4643 114.682 40.2477C114.978 39.7678 115.291 39.5278 115.616 39.5278C115.984 39.5278 116.169 39.7064 116.169 40.058C116.169 40.6663 115.47 41.894 114.068 43.7468C112.609 45.6833 111.257 46.6543 110.01 46.6543C109.474 46.6543 109.032 46.4311 108.691 45.9735C108.451 45.6498 108.328 45.2536 108.328 44.7848C108.328 43.9924 108.568 42.8985 109.049 41.4978C109.53 40.0971 110.245 38.395 111.195 36.3859C113.632 31.2852 116.113 27.0774 118.65 23.768C120.673 21.1116 122.35 19.7834 123.68 19.7834C124.105 19.7834 124.451 19.9453 124.719 20.269C125.004 20.5926 125.144 20.9665 125.144 21.3907C125.144 23.3718 123.372 26.6644 119.835 31.274C118.248 33.3221 116.353 35.3758 114.146 37.4239C113.57 37.9597 112.777 38.6796 111.776 39.5836ZM113.28 36.2129C116.225 33.696 118.857 30.5151 121.176 26.67C122.378 24.6777 122.981 23.3551 122.981 22.7077C122.981 22.3952 122.847 22.2389 122.579 22.2389C121.802 22.2389 120.383 23.7848 118.332 26.882C116.638 29.4268 114.951 32.5353 113.28 36.2129Z" fill="white"/>
<path d="M123.874 43.1218C123.405 43.9421 122.947 44.6341 122.494 45.1978C121.6 46.3028 120.717 46.8497 119.839 46.8497C119.074 46.8497 118.481 46.4869 118.057 45.767C117.788 45.2982 117.654 44.7513 117.654 44.1151C117.654 42.547 118.152 40.817 119.141 38.9195C120.247 36.8156 121.577 35.1972 123.131 34.0644C124.148 33.3277 125.132 32.9594 126.082 32.9594C126.674 32.9594 127.172 33.1435 127.568 33.5119C127.909 33.8356 128.077 34.2039 128.077 34.6168C128.077 34.9294 127.954 35.3591 127.714 35.9116C127.926 36.2073 128.032 36.4696 128.032 36.6984C128.032 36.9942 127.837 37.4853 127.44 38.1606C127.026 38.8526 126.618 39.7734 126.21 40.9174C125.769 42.134 125.551 43.1106 125.551 43.8417C125.551 44.4332 125.73 44.9243 126.082 45.3038C126.182 45.4043 126.473 45.5661 126.954 45.7893C127.306 45.9568 127.484 46.2581 127.484 46.6822C127.484 46.9501 127.384 47.1678 127.188 47.3408C126.976 47.5249 126.73 47.6142 126.445 47.6142C125.679 47.6142 125.02 47.2738 124.472 46.5985C124.02 46.046 123.79 45.354 123.79 44.5225C123.79 44.2379 123.818 43.7747 123.874 43.1218ZM126.529 36.1459C126.361 35.8334 126.177 35.6046 125.976 35.4595C125.774 35.3088 125.562 35.2363 125.339 35.2363C124.26 35.2363 123.092 36.1739 121.835 38.0545C120.449 40.1305 119.756 41.894 119.756 43.3338C119.756 43.6854 119.823 43.9533 119.957 44.1375C120.091 44.3216 120.292 44.4109 120.56 44.4109C121.242 44.4109 122.03 43.691 122.935 42.2456C123.444 41.4532 124.076 40.2868 124.824 38.7465C125.322 37.742 125.679 37.0779 125.909 36.7542C126.026 36.5924 126.233 36.3859 126.529 36.1459Z" fill="white"/>
<path opacity="0.49" d="M14.1489 67.8385C17.615 67.8385 20.4249 65.0327 20.4249 61.5714C20.4249 58.1102 17.615 55.3044 14.1489 55.3044C10.6829 55.3044 7.87305 58.1102 7.87305 61.5714C7.87305 65.0327 10.6829 67.8385 14.1489 67.8385Z" fill="white"/>
<path opacity="0.49" d="M113.278 69.6634C116.744 69.6634 119.554 66.8575 119.554 63.3963C119.554 59.9351 116.744 57.1292 113.278 57.1292C109.812 57.1292 107.002 59.9351 107.002 63.3963C107.002 66.8575 109.812 69.6634 113.278 69.6634Z" fill="white"/>
<path opacity="0.49" d="M28.5284 52.8377C30.263 52.8377 31.6692 51.4335 31.6692 49.7014C31.6692 47.9692 30.263 46.565 28.5284 46.565C26.7939 46.565 25.3877 47.9692 25.3877 49.7014C25.3877 51.4335 26.7939 52.8377 28.5284 52.8377Z" fill="white"/>
<path opacity="0.49" d="M62.0265 63.4019C63.7611 63.4019 65.1672 61.9977 65.1672 60.2656C65.1672 58.5334 63.7611 57.1292 62.0265 57.1292C60.2919 57.1292 58.8857 58.5334 58.8857 60.2656C58.8857 61.9977 60.2919 63.4019 62.0265 63.4019Z" fill="white"/>
<path opacity="0.49" d="M136.962 59.7745C138.697 59.7745 140.103 58.3703 140.103 56.6381C140.103 54.906 138.697 53.5018 136.962 53.5018C135.227 53.5018 133.821 54.906 133.821 56.6381C133.821 58.3703 135.227 59.7745 136.962 59.7745Z" fill="white"/>
<path opacity="0.49" d="M10.3375 42.1507C11.3653 42.1507 12.1985 41.3187 12.1985 40.2924C12.1985 39.266 11.3653 38.434 10.3375 38.434C9.30975 38.434 8.47656 39.266 8.47656 40.2924C8.47656 41.3187 9.30975 42.1507 10.3375 42.1507Z" fill="white"/>
<path opacity="0.49" d="M151.062 67.113C152.09 67.113 152.923 66.281 152.923 65.2547C152.923 64.2283 152.09 63.3963 151.062 63.3963C150.034 63.3963 149.201 64.2283 149.201 65.2547C149.201 66.281 150.034 67.113 151.062 67.113Z" fill="white"/>
<path opacity="0.49" d="M96.0709 58.4965C97.0987 58.4965 97.9319 57.6645 97.9319 56.6381C97.9319 55.6118 97.0987 54.7798 96.0709 54.7798C95.0431 54.7798 94.21 55.6118 94.21 56.6381C94.21 57.6645 95.0431 58.4965 96.0709 58.4965Z" fill="white"/>
<path opacity="0.49" d="M156.762 45.421C157.79 45.421 158.623 44.589 158.623 43.5626C158.623 42.5363 157.79 41.7043 156.762 41.7043C155.735 41.7043 154.901 42.5363 154.901 43.5626C154.901 44.589 155.735 45.421 156.762 45.421Z" fill="white"/>
<path opacity="0.49" d="M162.111 59.3113C162.849 59.3113 163.447 58.7141 163.447 57.9775C163.447 57.2409 162.849 56.6437 162.111 56.6437C161.373 56.6437 160.775 57.2409 160.775 57.9775C160.775 58.7141 161.373 59.3113 162.111 59.3113Z" fill="white"/>
<path opacity="0.49" d="M42.6002 57.1739C43.628 57.1739 44.4612 56.3419 44.4612 55.3155C44.4612 54.2892 43.628 53.4572 42.6002 53.4572C41.5724 53.4572 40.7393 54.2892 40.7393 55.3155C40.7393 56.3419 41.5724 57.1739 42.6002 57.1739Z" fill="white"/>
<path opacity="0.49" d="M53.9228 48.5462C54.4352 48.5462 54.8505 48.1314 54.8505 47.6198C54.8505 47.1082 54.4352 46.6934 53.9228 46.6934C53.4105 46.6934 52.9951 47.1082 52.9951 47.6198C52.9951 48.1314 53.4105 48.5462 53.9228 48.5462Z" fill="white"/>
<path opacity="0.49" d="M24.4599 33.8746C24.9723 33.8746 25.3876 33.4599 25.3876 32.9482C25.3876 32.4366 24.9723 32.0218 24.4599 32.0218C23.9476 32.0218 23.5322 32.4366 23.5322 32.9482C23.5322 33.4599 23.9476 33.8746 24.4599 33.8746Z" fill="white"/>
<path opacity="0.49" d="M77.6123 55.3155C78.1246 55.3155 78.54 54.9008 78.54 54.3891C78.54 53.8775 78.1246 53.4627 77.6123 53.4627C77.0999 53.4627 76.6846 53.8775 76.6846 54.3891C76.6846 54.9008 77.0999 55.3155 77.6123 55.3155Z" fill="white"/>
<path opacity="0.49" d="M142.171 37.4909C142.683 37.4909 143.099 37.0761 143.099 36.5645C143.099 36.0529 142.683 35.6381 142.171 35.6381C141.659 35.6381 141.243 36.0529 141.243 36.5645C141.243 37.0761 141.659 37.4909 142.171 37.4909Z" fill="white"/>
</svg>
