<svg width="62" height="50" viewBox="0 0 62 50" fill="none" xmlns="http://www.w3.org/2000/svg">
<rect x="3.48918" y="20.5845" width="49" height="25" transform="rotate(-17.9652 3.48918 20.5845)" stroke="#EAE8FE" stroke-width="2"/>
<rect x="7.26847" y="22.513" width="43" height="19" transform="rotate(-17.9652 7.26847 22.513)" stroke="#EAE8FE" stroke-width="2"/>
<path d="M25.2932 23.8861L23.0559 24.6115L22.568 23.1067L24.8053 22.3812L25.2932 23.8861ZM20.9118 25.3068L19.5934 25.7343L20.1375 27.4123L29.2865 24.4457L28.7425 22.7677L27.4373 23.1909L26.9494 21.686L28.3877 21.2196L27.8436 19.5416L18.4415 22.5903L18.9856 24.2683L20.4239 23.8019L20.9118 25.3068ZM28.7214 30.7367L24.2601 32.1833L23.9967 31.3709L28.458 29.9244L28.7214 30.7367ZM31.1083 26.3422L30.5642 24.6642L19.2578 28.3304L19.8019 30.0084L24.383 28.5229L24.6421 29.322L21.3394 30.3929L22.6824 34.5346L31.3786 31.7148L30.0357 27.5731L26.7996 28.6224L26.5405 27.8234L31.1083 26.3422ZM37.2344 18.8221L37.7828 20.5134L39.3809 19.9952L40.0891 22.1792L42.2465 21.4797L40.2083 15.1939L38.0509 15.8934L38.8325 18.3039L37.2344 18.8221ZM38.7006 20.8928C36.7296 20.9873 35.6564 20.1285 35.1692 19.0796L37.4065 18.3542L36.8624 16.6762L30.1238 18.8612L30.6679 20.5392L32.9185 19.8094C33.1481 20.9712 32.7729 22.4469 31.0718 23.646L32.6147 25.0002C33.9278 24.1476 34.5927 22.9754 34.8108 21.7419C35.6501 22.5148 36.7975 22.9669 38.2459 22.8946L38.7006 20.8928ZM37.4519 27.9353L37.3137 27.5091L43.5463 25.4882L42.389 21.9192L34.0123 24.6353L34.5392 26.26L40.785 24.2348L40.9189 24.6477L34.6863 26.6685L35.8522 30.2643L44.5219 27.4531L43.9907 25.8151L37.4519 27.9353Z" fill="#EAE8FE"/>
</svg>
