<svg width="36" height="65" viewBox="0 0 36 65" fill="none" xmlns="http://www.w3.org/2000/svg">
<path d="M35.9305 7.62821V57.3718C35.9305 57.5721 35.8494 57.7638 35.7041 57.8983C35.4664 58.1243 35.2428 58.4047 35.0415 58.7338C34.4292 59.7552 34.2475 60.9026 34.2196 61.1029C34.0742 64.1216 23.979 64.9285 17.999 64.9285C12.0135 64.9285 1.89869 64.1187 1.77847 61.0972C1.75611 60.9169 1.57998 59.7638 0.956544 58.7309C0.760846 58.4047 0.539987 58.1243 0.299558 57.9011C0.154183 57.7638 0.0703125 57.5721 0.0703125 57.3718V7.63107C0.0703125 7.52806 0.092678 7.43364 0.129022 7.34494C0.131818 7.33636 0.137409 7.33063 0.140205 7.32491C0.156979 7.28771 0.176548 7.25338 0.198914 7.2219C0.207301 7.2076 0.215688 7.19902 0.224075 7.18757C0.243645 7.16182 0.26601 7.13607 0.291171 7.11318C0.293967 7.11031 0.296763 7.10459 0.299558 7.10173C0.542783 6.87569 0.763642 6.59814 0.956544 6.27482C1.6331 5.15319 1.78127 3.8885 1.78127 3.87419C1.78407 3.86275 1.78966 3.84844 1.78966 3.837C2.05525 0.869834 12.0554 0.0715332 17.999 0.0715332C23.9454 0.0715332 33.9428 0.869834 34.2084 3.837C34.2112 3.84844 34.2168 3.85989 34.2168 3.87419C34.2196 3.88564 34.3761 5.16177 35.0443 6.27196C35.2344 6.5867 35.4497 6.86138 35.6845 7.08456L35.6957 7.09601C35.6985 7.09887 35.7013 7.10173 35.7041 7.10459L35.7069 7.10745C35.7376 7.13893 35.7656 7.1704 35.7935 7.2076C35.7991 7.21332 35.8019 7.22191 35.8075 7.23049C35.8271 7.26196 35.8467 7.29344 35.8634 7.32777C35.8662 7.33636 35.8718 7.34494 35.8746 7.35639C35.8886 7.39072 35.8998 7.42792 35.9082 7.46512C35.911 7.4737 35.9137 7.48228 35.9165 7.49087C35.9165 7.49659 35.9193 7.50517 35.9221 7.5109C35.9277 7.55095 35.9305 7.58815 35.9305 7.62821ZM34.5355 56.9741L34.5327 9.38218C34.5243 9.3879 34.5159 9.39077 34.5075 9.39649C34.3901 9.45658 34.2587 9.51952 34.1217 9.58247C34.0462 9.61681 33.9512 9.65687 33.8477 9.69692C33.7052 9.75701 33.5458 9.81424 33.3753 9.87432C33.3669 9.87718 33.3585 9.88005 33.3501 9.88291C32.4583 10.2005 31.3959 10.4609 30.2497 10.6726C29.8974 10.7384 29.5368 10.7985 29.1678 10.8557C28.6422 10.9416 28.0886 11.0217 27.4987 11.0932L27.1297 11.1362C26.8893 11.1676 26.6377 11.1962 26.3805 11.222C26.291 11.2306 26.2016 11.242 26.1093 11.2477C26.0059 11.2592 25.9052 11.2706 25.8018 11.2792C25.511 11.3078 25.2091 11.3364 24.9072 11.3593L24.6472 11.3794C24.4291 11.3965 24.2082 11.4137 23.9874 11.4309C23.842 11.4423 23.677 11.4509 23.5121 11.4623C23.3639 11.4709 23.2046 11.4824 23.0396 11.491C22.7265 11.511 22.3994 11.5282 22.0723 11.5425C21.7592 11.5568 21.4461 11.5682 21.1246 11.5797C20.6801 11.5968 20.23 11.6083 19.7743 11.6169C19.5422 11.6226 19.3074 11.6254 19.0698 11.6283H19.0027C18.67 11.6312 18.3345 11.634 17.999 11.634C17.4259 11.634 6.80791 11.6054 2.18944 9.70551C2.18664 9.70551 2.18664 9.70551 2.18664 9.70551C1.92665 9.59964 1.68622 9.48805 1.46815 9.36788V57.017C1.47374 57.017 1.89869 57.9097 6.2907 58.7023C9.4638 59.2746 13.621 59.5893 17.999 59.5893C20.7248 59.5893 23.4338 59.4634 25.8465 59.223C25.9052 59.2173 25.9611 59.2116 26.017 59.2059C26.1624 59.1916 26.305 59.1801 26.4448 59.1601C26.4727 59.1601 26.5007 59.1544 26.5286 59.1515C30.5936 58.7052 32.7239 58.0642 33.7387 57.5807C33.7415 57.5778 33.7415 57.5778 33.7443 57.5778C33.789 57.5549 33.8338 57.5349 33.8757 57.512C33.8813 57.5091 33.8869 57.5063 33.8925 57.5034C33.9288 57.4834 33.9652 57.4662 33.9959 57.449C34.0071 57.4433 34.0155 57.4376 34.0239 57.4319C34.0518 57.4176 34.0798 57.4004 34.1049 57.3861C34.1161 57.3775 34.1273 57.3718 34.1357 57.3661C34.1581 57.3518 34.1804 57.3375 34.2 57.326C34.2112 57.3174 34.2224 57.3088 34.2335 57.3003C34.2503 57.2917 34.2671 57.2802 34.2811 57.2688C34.2923 57.2602 34.3034 57.2516 34.3146 57.243C34.3258 57.2344 34.3398 57.223 34.351 57.2144C34.3621 57.2058 34.3705 57.1973 34.3817 57.1887C34.3901 57.1801 34.4013 57.1715 34.4097 57.1658L34.4348 57.14C34.4432 57.1314 34.4488 57.1257 34.4544 57.1171C34.4628 57.1086 34.4712 57.1 34.4768 57.0914C34.4824 57.0857 34.488 57.0799 34.4907 57.0742C34.4963 57.0685 34.5019 57.0599 34.5075 57.0513C34.5103 57.0456 34.5159 57.0399 34.5187 57.037C34.5215 57.0284 34.5243 57.0227 34.5271 57.017C34.5299 57.0113 34.5327 57.0055 34.5327 57.0027C34.5327 56.9941 34.5355 56.9827 34.5355 56.9741ZM34.3929 7.77413C34.2 7.54809 34.0211 7.2963 33.8533 7.02448C33.5486 6.51517 33.3305 5.98583 33.174 5.51657C33.1628 5.5223 33.1488 5.53088 33.1348 5.53946C33.0594 5.58811 32.9783 5.63389 32.8944 5.68253C32.8693 5.69684 32.8441 5.70828 32.8189 5.72259C32.7155 5.77981 32.6093 5.83418 32.4946 5.88568C32.4807 5.8914 32.4639 5.89999 32.4499 5.90571C32.3465 5.95149 32.2374 6.00013 32.1256 6.04591C32.0921 6.05736 32.0585 6.07167 32.025 6.08597C31.8936 6.13748 31.7622 6.18612 31.6196 6.23476C30.8536 6.50372 29.9338 6.73835 28.891 6.94436C28.2508 7.07312 27.5658 7.18757 26.839 7.28771C26.7942 7.2963 26.7467 7.30202 26.6992 7.30774C25.9192 7.41647 25.0917 7.50517 24.2278 7.58243C23.2297 7.67113 22.1842 7.7398 21.1022 7.78272C20.0958 7.82278 19.0586 7.84567 17.999 7.84567C12.3629 7.84567 7.27199 7.2448 4.38125 6.23476C4.23867 6.18612 4.10448 6.13748 3.97588 6.08597C3.94233 6.07167 3.90878 6.05736 3.87524 6.04591C3.76341 6.00013 3.65438 5.95149 3.55094 5.90571C3.53696 5.89999 3.52018 5.8914 3.50621 5.88568C3.39158 5.83418 3.28535 5.77981 3.18191 5.72259C3.15675 5.71114 3.13158 5.69684 3.10642 5.68253C3.02255 5.63675 2.94427 5.58811 2.86879 5.54233C2.85481 5.53374 2.83804 5.52516 2.82685 5.51657C2.67309 5.98583 2.45503 6.5123 2.1475 7.02161C1.98256 7.2963 1.80084 7.55095 1.60514 7.77986C1.92944 8.06599 2.98621 8.72122 6.2935 9.31637C9.4638 9.88863 13.6238 10.2034 17.999 10.2034C19.0558 10.2034 20.0958 10.1833 21.1134 10.149C21.3427 10.1404 21.5635 10.1318 21.7844 10.1204C21.8962 10.1175 22.008 10.1118 22.1171 10.1061C22.4022 10.0946 22.6846 10.0803 22.9614 10.0603C23.1207 10.0517 23.2745 10.046 23.4254 10.0346C23.4841 10.0317 23.5373 10.026 23.5932 10.0231C23.6631 10.0202 23.733 10.0145 23.8057 10.0088C23.8308 10.0059 23.856 10.0059 23.8811 10.0031C24.1132 9.98878 24.3284 9.97161 24.5409 9.95444L24.7785 9.93441C24.7869 9.93441 24.7981 9.93441 24.8093 9.93155C25.1001 9.91152 25.3908 9.88291 25.6732 9.85429C25.8689 9.83713 26.0534 9.8171 26.2379 9.79707C26.4867 9.77132 26.7271 9.74843 26.9648 9.71695L27.3003 9.67689C27.3478 9.67117 27.3953 9.66545 27.4428 9.65973C27.6078 9.63684 27.7699 9.61681 27.9293 9.59678C28.0355 9.57961 28.139 9.5653 28.2424 9.551C28.3402 9.53669 28.4381 9.52238 28.5331 9.50808C28.6729 9.48805 28.8099 9.46516 28.9469 9.44513C29.014 9.43368 29.0811 9.42224 29.1454 9.41366C29.246 9.39649 29.3439 9.37932 29.4417 9.36215C29.5592 9.34212 29.6794 9.31923 29.794 9.2992L29.8499 9.29062C29.9785 9.26487 30.1099 9.24198 30.2329 9.21623C30.2637 9.2105 30.2972 9.20478 30.328 9.1962C30.3783 9.18761 30.423 9.17903 30.4706 9.16758C30.5432 9.15328 30.6159 9.13897 30.6886 9.1218C30.7501 9.11036 30.8088 9.09605 30.8675 9.08461C30.9291 9.0703 30.9822 9.05886 31.0381 9.04741C31.0688 9.03883 31.1024 9.0331 31.1331 9.02452C31.1863 9.01307 31.2366 8.99877 31.2869 8.98732C31.5245 8.93296 31.7398 8.87859 31.9439 8.82137C32.0417 8.79562 32.1284 8.76986 32.2123 8.74411C32.3241 8.7155 32.4275 8.68403 32.5254 8.65255C32.5869 8.63252 32.6456 8.61536 32.7015 8.59533C32.7239 8.5896 32.7462 8.58102 32.7658 8.5753C32.8189 8.55813 32.8693 8.54096 32.9196 8.52093C32.9867 8.49804 33.0482 8.47515 33.1125 8.45226C33.1209 8.4494 33.132 8.44654 33.1404 8.44082C33.1656 8.43223 33.188 8.42365 33.2103 8.41506C33.2746 8.38931 33.3361 8.36642 33.3948 8.34067C33.4116 8.33495 33.4284 8.32636 33.4424 8.32064C33.5095 8.29203 33.5738 8.26628 33.6325 8.23766C33.6353 8.23766 33.6353 8.2348 33.6381 8.2348C34.0462 8.04596 34.2699 7.88573 34.3929 7.77413ZM33.2355 59.3089C33.2215 59.3146 33.2047 59.3203 33.1908 59.3232C33.0146 59.3833 32.8329 59.4434 32.64 59.5006C32.6288 59.5035 32.6148 59.5063 32.6037 59.5092C32.4052 59.5693 32.1983 59.6265 31.983 59.6809C31.9746 59.6837 31.9662 59.6866 31.9579 59.6894C31.7426 59.7438 31.5189 59.7953 31.2869 59.8468C31.2617 59.8525 31.2366 59.8611 31.2086 59.8668C30.985 59.9155 30.7529 59.9641 30.5125 60.0099C30.4761 60.0185 30.437 60.0242 30.4007 60.0328C30.163 60.0786 29.917 60.1215 29.6654 60.1644C29.6207 60.173 29.5759 60.1787 29.5312 60.1873C29.2768 60.2302 29.0168 60.2703 28.7484 60.3103C28.7009 60.3161 28.6562 60.3218 28.6086 60.3304C28.3347 60.3704 28.0523 60.4076 27.7615 60.4448C27.7224 60.4505 27.6833 60.4563 27.6441 60.4591C27.3534 60.4963 27.057 60.5307 26.7495 60.565C26.7327 60.5679 26.716 60.5707 26.6992 60.5707C26.6908 60.5736 26.6824 60.5736 26.6768 60.5736C26.5091 60.5965 26.3329 60.6136 26.1512 60.6308C23.6547 60.8855 20.8338 61.0199 17.999 61.0199H17.7893C17.7474 61.0199 17.6971 61.0199 17.644 61.0171H17.5853C17.5238 61.0171 17.4622 61.0171 17.3896 61.0142C17.3868 61.0142 17.384 61.0142 17.384 61.0142C17.3141 61.0142 17.2386 61.0142 17.1575 61.0114H17.0764C16.9926 61.0085 16.9087 61.0085 16.8164 61.0056H16.7969C16.7074 61.0056 16.6124 61.0028 16.5173 60.9999C16.4782 60.9999 16.4418 60.9999 16.4027 60.997C16.302 60.9942 16.2014 60.9942 16.0924 60.9913C16.0784 60.9885 16.0644 60.9885 16.0504 60.9885C15.9442 60.9856 15.8324 60.9827 15.7177 60.9799C15.6758 60.977 15.6339 60.977 15.5891 60.9742C15.4829 60.9713 15.3739 60.9684 15.2593 60.9656C15.2229 60.9627 15.1866 60.9627 15.1502 60.9599C15.0356 60.957 14.9182 60.9513 14.8008 60.9484C14.7504 60.9455 14.7029 60.9427 14.6554 60.9427C14.5352 60.937 14.4122 60.9312 14.2892 60.9255C14.2444 60.9255 14.2025 60.9227 14.1578 60.9198C14.0319 60.9141 13.9061 60.9084 13.7775 60.9026L13.6182 60.894C13.4896 60.8883 13.361 60.8797 13.2296 60.874C13.1765 60.8712 13.1234 60.8683 13.0702 60.8654C12.9388 60.8568 12.8074 60.8483 12.6732 60.8397C12.6145 60.8368 12.5558 60.834 12.4971 60.8282C12.3573 60.8196 12.2148 60.8111 12.0722 60.8025C12.0274 60.7996 11.9799 60.7939 11.9352 60.791C11.7926 60.7825 11.65 60.771 11.5047 60.7596C11.4431 60.7567 11.3816 60.751 11.3201 60.7453C11.1748 60.7367 11.0294 60.7224 10.884 60.7109C10.8337 60.7081 10.7834 60.7023 10.733 60.6995C10.5877 60.6852 10.4395 60.6737 10.2913 60.6594C10.2298 60.6537 10.1683 60.648 10.1068 60.6423C9.95305 60.6279 9.79929 60.6136 9.64552 60.5965C9.60359 60.5936 9.56165 60.5907 9.52251 60.585C9.36596 60.5679 9.2094 60.5536 9.05284 60.5364C8.99413 60.5278 8.93822 60.5221 8.87951 60.5164C8.72295 60.4992 8.56639 60.4792 8.40983 60.462C8.3679 60.4563 8.32596 60.4505 8.28403 60.4448C8.13026 60.4277 7.9765 60.4076 7.82274 60.3847C7.76403 60.379 7.70812 60.3704 7.64941 60.3618C7.49005 60.3418 7.3279 60.3189 7.16855 60.296C7.1378 60.2903 7.10704 60.2846 7.07909 60.2817C6.91973 60.2588 6.76318 60.2331 6.60662 60.2073C6.5535 60.1987 6.50038 60.1902 6.44726 60.1816C6.28511 60.1558 6.12576 60.1272 5.96641 60.0986C5.94404 60.0957 5.92167 60.0929 5.89931 60.0872C5.74275 60.0585 5.58619 60.0299 5.43243 59.9985C5.3849 59.9899 5.33458 59.9813 5.28706 59.9698C5.1277 59.9384 4.97114 59.9069 4.81738 59.8726C4.8034 59.8697 4.78663 59.8668 4.76985 59.8611C4.61889 59.8296 4.47072 59.7924 4.32254 59.7581C4.28061 59.7467 4.23588 59.7381 4.19394 59.7266C4.04018 59.6894 3.88921 59.6494 3.74104 59.6093C3.73545 59.6093 3.72706 59.6065 3.71868 59.6036C3.5761 59.5635 3.43631 59.5235 3.29653 59.4806C3.26019 59.4691 3.22105 59.4577 3.18191 59.4462C3.04212 59.4033 2.90234 59.3575 2.76815 59.3117C2.76815 59.3117 2.76815 59.3117 2.76535 59.3117C3.08965 60.2216 3.17072 60.9541 3.17072 60.9656C3.17352 60.9913 3.17632 61.0171 3.17632 61.0428C3.41395 61.8898 8.71456 63.4978 17.999 63.4978C27.2863 63.4978 32.5869 61.8898 32.8273 61.0285C32.8273 60.9999 32.8273 60.9827 32.8301 60.9541C32.8441 60.8454 32.9363 60.1558 33.2355 59.3089ZM32.8189 3.95717C32.8189 3.95717 32.8189 3.95431 32.8189 3.95717C32.5198 3.08734 27.2248 1.50218 17.999 1.50218C8.7509 1.50218 3.45309 3.09592 3.17911 3.96003C3.19588 3.9915 3.32449 4.21182 3.94233 4.51798C3.94513 4.51798 3.94513 4.51798 3.94792 4.52084C3.99545 4.54373 4.04577 4.56663 4.09889 4.58952C4.11007 4.59524 4.11846 4.60096 4.12964 4.60668C4.17717 4.62671 4.22749 4.6496 4.27781 4.66963C4.29738 4.67822 4.31695 4.6868 4.33652 4.69538C4.38964 4.71541 4.44555 4.7383 4.50147 4.76119C4.52663 4.76978 4.5462 4.77836 4.57136 4.78694C4.59652 4.79553 4.62448 4.80697 4.65243 4.81556C7.99328 4.06018 12.8382 3.62526 17.999 3.62526C23.1626 3.62526 28.0048 4.06018 31.3484 4.81556C31.3736 4.80697 31.3987 4.79839 31.4239 4.78981C31.4518 4.77836 31.477 4.76978 31.5022 4.75833C31.5525 4.7383 31.6028 4.71827 31.6503 4.70111C31.6811 4.6868 31.7062 4.67535 31.7342 4.66391C31.7761 4.64674 31.8153 4.62957 31.8516 4.61241C31.8796 4.60096 31.9047 4.58952 31.9299 4.57807C31.9662 4.5609 31.9998 4.5466 32.0305 4.52943C32.0557 4.51798 32.0781 4.50654 32.1004 4.49509C32.1312 4.48079 32.1591 4.46362 32.1871 4.44931C32.2067 4.43787 32.2262 4.42642 32.2458 4.41784C32.2738 4.40353 32.2961 4.38922 32.3213 4.37492C32.3381 4.36347 32.3548 4.35489 32.3716 4.34344C32.394 4.32914 32.4164 4.31769 32.4359 4.30339C32.4499 4.2948 32.4639 4.28336 32.4779 4.27477C32.4974 4.26333 32.5142 4.24902 32.531 4.23758C32.545 4.22899 32.5561 4.22041 32.5673 4.21182C32.5841 4.20038 32.5981 4.18607 32.6148 4.17463C32.6232 4.16891 32.6316 4.16032 32.64 4.1546C32.6596 4.13743 32.6791 4.12026 32.6959 4.1031C32.7015 4.10023 32.7043 4.09737 32.7071 4.09451L32.7574 4.04301C32.763 4.03442 32.7686 4.0287 32.7742 4.02012C32.7798 4.0144 32.7826 4.01153 32.7854 4.00581C32.791 4.00009 32.7938 3.99437 32.7994 3.98864C32.8022 3.98578 32.805 3.98006 32.8077 3.9772C32.8105 3.97434 32.8105 3.96861 32.8133 3.96575C32.8161 3.96289 32.8161 3.96003 32.8189 3.95717ZM27.3058 5.77123C27.5267 5.73689 27.7392 5.70256 27.9489 5.66536C25.0861 5.27336 21.6278 5.05591 17.999 5.05591C14.373 5.05591 10.9148 5.27336 8.04919 5.66536C8.25887 5.70256 8.47413 5.73689 8.69499 5.77123C8.75091 5.77981 8.80961 5.7884 8.86832 5.79698C9.06682 5.82846 9.26531 5.85707 9.46939 5.88282C9.51413 5.88854 9.55886 5.89713 9.60638 5.90285C9.84681 5.93432 10.0928 5.9658 10.3416 5.99441C10.4004 6.00299 10.4591 6.00872 10.5178 6.01444C10.7302 6.04019 10.9427 6.06308 11.1608 6.08311C11.2167 6.08883 11.2726 6.09456 11.3285 6.10028C11.5885 6.12603 11.8541 6.15178 12.1197 6.17467C12.1756 6.17753 12.2315 6.18326 12.2874 6.18898C12.5139 6.20615 12.7431 6.22331 12.9724 6.24048C13.0395 6.24334 13.1038 6.24907 13.1681 6.25479C13.4449 6.27196 13.7244 6.28912 14.004 6.30629C14.0515 6.30915 14.099 6.30915 14.1466 6.31201C14.3898 6.32632 14.6358 6.33777 14.8818 6.34921C14.9545 6.35207 15.03 6.35493 15.1027 6.35779C15.3906 6.36924 15.6814 6.37782 15.9722 6.38641C16.0029 6.38641 16.0337 6.38927 16.0644 6.38927C16.33 6.39499 16.5984 6.40071 16.8668 6.40357C16.945 6.40644 17.0233 6.40644 17.1016 6.4093C17.4007 6.41216 17.6999 6.41502 17.999 6.41502C18.301 6.41502 18.6001 6.41216 18.8992 6.4093C18.9775 6.40644 19.0558 6.40644 19.1341 6.40357C19.4025 6.40071 19.6708 6.39499 19.9364 6.38927C19.9672 6.38927 19.9979 6.38641 20.0259 6.38641C20.3194 6.37782 20.6102 6.36924 20.8981 6.35779C20.9708 6.35493 21.0435 6.35207 21.119 6.34921C21.365 6.33777 21.6082 6.32632 21.8515 6.31201C21.899 6.30915 21.9493 6.30915 21.9968 6.30629C22.2764 6.28912 22.556 6.27196 22.83 6.25479C22.8971 6.24907 22.9614 6.24334 23.0285 6.24048C23.2577 6.22331 23.4869 6.20615 23.7106 6.18898C23.7665 6.18326 23.8252 6.17753 23.8811 6.17467C24.1467 6.15178 24.4123 6.12603 24.6723 6.10028C24.7282 6.09456 24.7841 6.08883 24.8401 6.08311C25.0553 6.06308 25.2706 6.04019 25.4803 6.01444C25.539 6.00872 25.6005 6.00299 25.6592 5.99441C25.908 5.9658 26.154 5.93432 26.3945 5.90285C26.442 5.89713 26.4867 5.88854 26.5314 5.88282C26.7355 5.85707 26.934 5.82846 27.1297 5.79698C27.1884 5.7884 27.2471 5.77981 27.3058 5.77123Z" fill="#111111"/>
<path d="M33.8527 7.02447C34.0204 7.2963 34.1993 7.54809 34.3923 7.77413C34.2692 7.88572 34.0456 8.04596 33.6374 8.2348C33.6346 8.2348 33.6346 8.23766 33.6318 8.23766C33.5731 8.26628 33.5088 8.29203 33.4417 8.32064C33.4277 8.32636 33.411 8.33495 33.3942 8.34067C33.3355 8.36642 33.274 8.38931 33.2097 8.41506C33.1873 8.42365 33.1649 8.43223 33.1398 8.44081C33.1314 8.44654 33.1202 8.4494 33.1118 8.45226C33.0475 8.47515 32.986 8.49804 32.9189 8.52093C32.8686 8.54096 32.8183 8.55813 32.7652 8.57529C32.7456 8.58102 32.7232 8.5896 32.7009 8.59532C32.6449 8.61535 32.5862 8.63252 32.5247 8.65255C32.4269 8.68402 32.3234 8.7155 32.2116 8.74411C32.1277 8.76986 32.0411 8.79561 31.9432 8.82137C31.7391 8.87859 31.5239 8.93296 31.2862 8.98732C31.2359 8.99877 31.1856 9.01307 31.1325 9.02452C31.1017 9.0331 31.0682 9.03882 31.0374 9.04741C30.9815 9.05885 30.9284 9.0703 30.8669 9.0846C30.8082 9.09605 30.7495 9.11036 30.688 9.1218C30.6153 9.13897 30.5426 9.15328 30.4699 9.16758C30.4224 9.17903 30.3777 9.18761 30.3273 9.1962C30.2966 9.20478 30.263 9.2105 30.2323 9.21622C30.1093 9.24198 29.9779 9.26487 29.8493 9.29062L29.7934 9.2992C29.6787 9.31923 29.5585 9.34212 29.4411 9.36215C29.3432 9.37932 29.2454 9.39649 29.1448 9.41365C29.0805 9.42224 29.0134 9.43368 28.9463 9.44513C28.8093 9.46516 28.6723 9.48805 28.5325 9.50808C28.4374 9.52238 28.3396 9.53669 28.2417 9.551C28.1383 9.5653 28.0349 9.57961 27.9286 9.59678C27.7693 9.61681 27.6071 9.63683 27.4422 9.65972C27.3947 9.66545 27.3471 9.67117 27.2996 9.67689L26.9641 9.71695C26.7265 9.74843 26.4861 9.77132 26.2372 9.79707C26.0527 9.8171 25.8682 9.83713 25.6725 9.85429C25.3902 9.88291 25.0994 9.91152 24.8087 9.93155C24.7975 9.93441 24.7863 9.93441 24.7779 9.93441L24.5403 9.95444C24.3278 9.97161 24.1125 9.98877 23.8805 10.0031C23.8553 10.0059 23.8302 10.0059 23.805 10.0088C23.7323 10.0145 23.6624 10.0202 23.5925 10.0231C23.5366 10.026 23.4835 10.0317 23.4248 10.0346C23.2738 10.046 23.1201 10.0517 22.9607 10.0603C22.6839 10.0803 22.4016 10.0946 22.1164 10.1061C22.0074 10.1118 21.8956 10.1175 21.7837 10.1204C21.5629 10.1318 21.342 10.1404 21.1128 10.149C20.0951 10.1833 19.0551 10.2034 17.9984 10.2034C13.6231 10.2034 9.46315 9.88863 6.29285 9.31637C2.98556 8.72122 1.92879 8.06598 1.60449 7.77986C1.80019 7.55095 1.98191 7.2963 2.14685 7.02161C2.45438 6.5123 2.67244 5.98582 2.82621 5.51657C2.83739 5.52515 2.85416 5.53374 2.86814 5.54232C2.94362 5.5881 3.0219 5.63675 3.10577 5.68253C3.13093 5.69683 3.1561 5.71114 3.18126 5.72258C3.2847 5.77981 3.39093 5.83417 3.50556 5.88568C3.51953 5.8914 3.53631 5.89998 3.55029 5.90571C3.65373 5.95149 3.76276 6.00013 3.87459 6.04591C3.90813 6.05736 3.94168 6.07166 3.97523 6.08597C4.10383 6.13747 4.23802 6.18611 4.3806 6.23476C7.27134 7.24479 12.3623 7.84566 17.9984 7.84566C19.0579 7.84566 20.0951 7.82277 21.1016 7.78272C22.1835 7.7398 23.2291 7.67113 24.2272 7.58243C25.091 7.50517 25.9185 7.41647 26.6985 7.30774C26.7461 7.30202 26.7936 7.2963 26.8383 7.28771C27.5652 7.18757 28.2501 7.07312 28.8903 6.94436C29.9331 6.73834 30.8529 6.50372 31.6189 6.23476C31.7615 6.18611 31.8929 6.13747 32.0243 6.08597C32.0579 6.07166 32.0914 6.05736 32.125 6.04591C32.2368 6.00013 32.3458 5.95149 32.4493 5.90571C32.4632 5.89998 32.48 5.8914 32.494 5.88568C32.6086 5.83417 32.7148 5.77981 32.8183 5.72258C32.8434 5.70828 32.8686 5.69683 32.8938 5.68253C32.9776 5.63388 33.0587 5.5881 33.1342 5.53946C33.1482 5.53088 33.1622 5.52229 33.1733 5.51657C33.3299 5.98582 33.548 6.51516 33.8527 7.02447Z" fill="#B5B5B6"/>
<path d="M33.191 59.3232C33.205 59.3203 33.2218 59.3146 33.2358 59.3089C32.9366 60.1558 32.8444 60.8454 32.8304 60.9541C32.8276 60.9828 32.8276 60.9999 32.8276 61.0285C32.5872 61.8898 27.2865 63.4978 17.9993 63.4978C8.71484 63.4978 3.41422 61.8898 3.17659 61.0428C3.17659 61.0171 3.17379 60.9913 3.171 60.9656C3.171 60.9541 3.08992 60.2217 2.76562 59.3118C2.76842 59.3118 2.76842 59.3118 2.76842 59.3118C2.90261 59.3575 3.0424 59.4033 3.18218 59.4462C3.22132 59.4577 3.26046 59.4691 3.2968 59.4806C3.43659 59.5235 3.57637 59.5636 3.71895 59.6036C3.72734 59.6065 3.73573 59.6093 3.74132 59.6093C3.88949 59.6494 4.04046 59.6895 4.19422 59.7267C4.23615 59.7381 4.28088 59.7467 4.32282 59.7581C4.47099 59.7925 4.61916 59.8297 4.77013 59.8611C4.7869 59.8669 4.80368 59.8697 4.81766 59.8726C4.97142 59.9069 5.12798 59.9384 5.28733 59.9699C5.33486 59.9813 5.38518 59.9899 5.43271 59.9985C5.58647 60.0299 5.74303 60.0586 5.89958 60.0872C5.92195 60.0929 5.94431 60.0958 5.96668 60.0986C6.12603 60.1272 6.28539 60.1558 6.44754 60.1816C6.50066 60.1902 6.55377 60.1988 6.60689 60.2073C6.76345 60.2331 6.92001 60.2588 7.07936 60.2817C7.10732 60.2846 7.13807 60.2903 7.16882 60.296C7.32818 60.3189 7.49033 60.3418 7.64968 60.3619C7.70839 60.3704 7.7643 60.379 7.82301 60.3847C7.97678 60.4076 8.13054 60.4277 8.2843 60.4448C8.32624 60.4506 8.36817 60.4563 8.41011 60.462C8.56666 60.4792 8.72322 60.4992 8.87978 60.5164C8.93849 60.5221 8.9944 60.5278 9.05311 60.5364C9.20967 60.5536 9.36623 60.5679 9.52279 60.585C9.56193 60.5908 9.60386 60.5936 9.6458 60.5965C9.79956 60.6137 9.95332 60.628 10.1071 60.6423C10.1686 60.648 10.2301 60.6537 10.2916 60.6594C10.4398 60.6737 10.5879 60.6852 10.7333 60.6995C10.7836 60.7024 10.834 60.7081 10.8843 60.7109C11.0297 60.7224 11.175 60.7367 11.3204 60.7453C11.3819 60.751 11.4434 60.7567 11.5049 60.7596C11.6503 60.771 11.7929 60.7825 11.9355 60.7911C11.9802 60.7939 12.0277 60.7996 12.0724 60.8025C12.215 60.8111 12.3576 60.8197 12.4974 60.8282C12.5561 60.834 12.6148 60.8368 12.6735 60.8397C12.8077 60.8483 12.9391 60.8569 13.0705 60.8654C13.1236 60.8683 13.1767 60.8712 13.2299 60.874C13.3613 60.8798 13.4899 60.8883 13.6185 60.8941L13.7778 60.9026C13.9064 60.9084 14.0322 60.9141 14.158 60.9198C14.2028 60.9227 14.2447 60.9255 14.2894 60.9255C14.4124 60.9313 14.5354 60.937 14.6557 60.9427C14.7032 60.9427 14.7507 60.9456 14.801 60.9484C14.9185 60.9513 15.0359 60.957 15.1505 60.9599C15.1868 60.9627 15.2232 60.9627 15.2595 60.9656C15.3742 60.9685 15.4832 60.9713 15.5894 60.9742C15.6341 60.977 15.6761 60.977 15.718 60.9799C15.8326 60.9828 15.9445 60.9856 16.0507 60.9885C16.0647 60.9885 16.0787 60.9885 16.0926 60.9913C16.2017 60.9942 16.3023 60.9942 16.403 60.9971C16.4421 60.9999 16.4784 60.9999 16.5176 60.9999C16.6126 61.0028 16.7077 61.0057 16.7972 61.0057H16.8167C16.909 61.0085 16.9928 61.0085 17.0767 61.0114H17.1578C17.2389 61.0142 17.3144 61.0142 17.3842 61.0142C17.3842 61.0142 17.387 61.0142 17.3898 61.0142C17.4625 61.0171 17.524 61.0171 17.5855 61.0171H17.6442C17.6974 61.02 17.7477 61.02 17.7896 61.02H17.9993C20.8341 61.02 23.655 60.8855 26.1515 60.6308C26.3332 60.6136 26.5093 60.5965 26.6771 60.5736C26.6827 60.5736 26.6911 60.5736 26.6995 60.5707C26.7162 60.5707 26.733 60.5679 26.7498 60.565C27.0573 60.5307 27.3536 60.4963 27.6444 60.4591C27.6835 60.4563 27.7227 60.4506 27.7618 60.4448C28.0526 60.4076 28.3349 60.3704 28.6089 60.3304C28.6564 60.3218 28.7012 60.3161 28.7487 60.3104C29.0171 60.2703 29.2771 60.2302 29.5315 60.1873C29.5762 60.1787 29.6209 60.173 29.6657 60.1644C29.9173 60.1215 30.1633 60.0786 30.4009 60.0328C30.4373 60.0242 30.4764 60.0185 30.5128 60.0099C30.7532 59.9641 30.9852 59.9155 31.2089 59.8669C31.2368 59.8611 31.262 59.8525 31.2872 59.8468C31.5192 59.7953 31.7429 59.7438 31.9581 59.6895C31.9665 59.6866 31.9749 59.6837 31.9833 59.6809C32.1986 59.6265 32.4054 59.5693 32.6039 59.5092C32.6151 59.5063 32.6291 59.5035 32.6403 59.5006C32.8332 59.4434 33.0149 59.3833 33.191 59.3232Z" fill="#B5B5B6"/>
<path d="M32.8213 3.9543C32.8185 3.9543 32.8185 3.95716 32.8213 3.9543C32.8157 3.96002 32.8157 3.96288 32.8129 3.96574C32.8101 3.9686 32.8101 3.97432 32.8073 3.97719C32.8046 3.98005 32.8018 3.98577 32.799 3.98863C32.7934 3.99435 32.7906 4.00008 32.785 4.0058C32.7822 4.01152 32.7794 4.01438 32.7738 4.02011C32.7682 4.02869 32.7626 4.03441 32.757 4.043L32.7067 4.0945C32.7039 4.09736 32.7011 4.10022 32.6955 4.10308C32.6787 4.12025 32.6592 4.13742 32.6396 4.15459C32.6312 4.16031 32.6228 4.16889 32.6144 4.17462C32.5977 4.18606 32.5837 4.20037 32.5669 4.21181C32.5557 4.2204 32.5446 4.22898 32.5306 4.23756C32.5138 4.24901 32.497 4.26332 32.4775 4.27476C32.4635 4.28334 32.4495 4.29479 32.4355 4.30337C32.416 4.31768 32.3936 4.32913 32.3712 4.34343C32.3544 4.35488 32.3377 4.36346 32.3209 4.37491C32.2957 4.38921 32.2734 4.40352 32.2454 4.41782C32.2258 4.42641 32.2063 4.43785 32.1867 4.4493C32.1587 4.46361 32.1308 4.48077 32.1 4.49508C32.0777 4.50653 32.0553 4.51797 32.0301 4.52942C31.9994 4.54658 31.9658 4.56089 31.9295 4.57806C31.9043 4.5895 31.8792 4.60095 31.8512 4.61239C31.8149 4.62956 31.7757 4.64673 31.7338 4.6639C31.7058 4.67534 31.6807 4.68679 31.6499 4.70109C31.6024 4.71826 31.5521 4.73829 31.5018 4.75832C31.4766 4.76976 31.4514 4.77835 31.4235 4.78979C31.3983 4.79838 31.3732 4.80696 31.348 4.81555C28.0044 4.06016 23.1622 3.62525 17.9986 3.62525C12.8378 3.62525 7.99288 4.06016 4.65204 4.81555C4.62408 4.80696 4.59612 4.79552 4.57096 4.78693C4.5458 4.77835 4.52623 4.76976 4.50107 4.76118C4.44516 4.73829 4.38924 4.7154 4.33612 4.69537C4.31655 4.68679 4.29698 4.6782 4.27741 4.66962C4.22709 4.64959 4.17677 4.6267 4.12924 4.60667C4.11806 4.60095 4.10967 4.59523 4.09849 4.5895C4.04537 4.56661 3.99505 4.54372 3.94752 4.52083C3.94473 4.51797 3.94473 4.51797 3.94193 4.51797C3.32409 4.21181 3.19549 3.99149 3.17871 3.96002C3.45269 3.09591 8.7505 1.50217 17.9986 1.50217C27.2244 1.50217 32.5194 3.08732 32.8213 3.9543Z" fill="#595757"/>
<path d="M27.9485 5.66536C27.7388 5.70256 27.5263 5.7369 27.3055 5.77123C27.2468 5.77982 27.1881 5.7884 27.1294 5.79698C26.9337 5.82846 26.7352 5.85707 26.5311 5.88282C26.4864 5.88854 26.4416 5.89713 26.3941 5.90285C26.1537 5.93432 25.9076 5.9658 25.6588 5.99441C25.6001 6.003 25.5386 6.00872 25.4799 6.01444C25.2702 6.04019 25.055 6.06308 24.8397 6.08311C24.7838 6.08883 24.7279 6.09456 24.672 6.10028C24.412 6.12603 24.1464 6.15178 23.8808 6.17467C23.8249 6.17753 23.7662 6.18326 23.7102 6.18898C23.4866 6.20615 23.2573 6.22332 23.0281 6.24048C22.961 6.24334 22.8967 6.24907 22.8296 6.25479C22.5556 6.27196 22.2761 6.28913 21.9965 6.30629C21.949 6.30915 21.8986 6.30915 21.8511 6.31202C21.6079 6.32632 21.3647 6.33777 21.1186 6.34921C21.0432 6.35207 20.9705 6.35493 20.8978 6.3578C20.6098 6.36924 20.3191 6.37783 20.0255 6.38641C19.9976 6.38641 19.9668 6.38927 19.9361 6.38927C19.6705 6.39499 19.4021 6.40072 19.1337 6.40358C19.0554 6.40644 18.9771 6.40644 18.8989 6.4093C18.5997 6.41216 18.3006 6.41502 17.9987 6.41502C17.6995 6.41502 17.4004 6.41216 17.1012 6.4093C17.023 6.40644 16.9447 6.40644 16.8664 6.40358C16.598 6.40072 16.3296 6.39499 16.064 6.38927C16.0333 6.38927 16.0025 6.38641 15.9718 6.38641C15.681 6.37783 15.3903 6.36924 15.1023 6.3578C15.0296 6.35493 14.9542 6.35207 14.8815 6.34921C14.6355 6.33777 14.3894 6.32632 14.1462 6.31202C14.0987 6.30915 14.0512 6.30915 14.0036 6.30629C13.7241 6.28913 13.4445 6.27196 13.1677 6.25479C13.1034 6.24907 13.0391 6.24334 12.972 6.24048C12.7428 6.22332 12.5135 6.20615 12.2871 6.18898C12.2312 6.18326 12.1753 6.17753 12.1193 6.17467C11.8538 6.15178 11.5882 6.12603 11.3282 6.10028C11.2722 6.09456 11.2163 6.08883 11.1604 6.08311C10.9424 6.06308 10.7299 6.04019 10.5174 6.01444C10.4587 6.00872 10.4 6.003 10.3413 5.99441C10.0925 5.9658 9.84645 5.93432 9.60602 5.90285C9.5585 5.89713 9.51376 5.88854 9.46903 5.88282C9.26495 5.85707 9.06646 5.82846 8.86796 5.79698C8.80925 5.7884 8.75054 5.77982 8.69463 5.77123C8.47377 5.7369 8.2585 5.70256 8.04883 5.66536C10.9144 5.27337 14.3727 5.05591 17.9987 5.05591C21.6275 5.05591 25.0857 5.27337 27.9485 5.66536Z" fill="#898989"/>
<path d="M34.5351 56.9741C34.5351 56.9826 34.5323 56.9941 34.5323 57.0027C34.5323 57.0055 34.5295 57.0113 34.5267 57.017C34.5239 57.0227 34.5211 57.0284 34.5183 57.037C34.5155 57.0399 34.5099 57.0456 34.5071 57.0513C34.5016 57.0599 34.496 57.0685 34.4904 57.0742C34.4876 57.0799 34.482 57.0856 34.4764 57.0914C34.4708 57.1 34.4624 57.1085 34.454 57.1171C34.4484 57.1257 34.4428 57.1314 34.4345 57.14L34.4093 57.1658C34.4009 57.1715 34.3897 57.1801 34.3813 57.1887C34.3702 57.1972 34.3618 57.2058 34.3506 57.2144C34.3394 57.223 34.3254 57.2344 34.3142 57.243C34.3031 57.2516 34.2919 57.2602 34.2807 57.2688C34.2667 57.2802 34.2499 57.2917 34.2332 57.3002C34.222 57.3088 34.2108 57.3174 34.1996 57.326C34.1801 57.3374 34.1577 57.3518 34.1353 57.3661C34.1269 57.3718 34.1158 57.3775 34.1046 57.3861C34.0794 57.4004 34.0515 57.4176 34.0235 57.4319C34.0151 57.4376 34.0067 57.4433 33.9955 57.449C33.9648 57.4662 33.9284 57.4834 33.8921 57.5034C33.8865 57.5063 33.8809 57.5091 33.8753 57.512C33.8334 57.5349 33.7887 57.5549 33.7439 57.5778C33.7411 57.5778 33.7411 57.5778 33.7383 57.5807C32.7235 58.0642 30.5932 58.7051 26.5283 59.1515C26.5003 59.1544 26.4724 59.1601 26.4444 59.1601C25.4715 55.0169 24.4231 47.1713 27.9457 40.0323C33.3274 29.1251 34.468 19.5941 30.2493 10.6726C31.3956 10.4609 32.4579 10.2005 33.3497 9.8829C33.3581 9.88004 33.3665 9.87717 33.3749 9.87431C33.5454 9.81423 33.7048 9.757 33.8474 9.69691C33.9508 9.65686 34.0459 9.6168 34.1213 9.58246C34.2583 9.51951 34.3897 9.45657 34.5071 9.39648C34.5155 9.39076 34.5239 9.38789 34.5323 9.38217L34.5351 56.9741Z" fill="#27AE60"/>
<path d="M27.9457 40.0323C24.4231 47.1713 25.4715 55.0169 26.4444 59.1601C26.3046 59.1801 26.162 59.1916 26.0167 59.2059C25.9608 59.2116 25.9048 59.2173 25.8461 59.223C24.5266 55.263 22.6842 47.3372 25.6812 39.7433C29.9893 28.839 30.4814 19.5369 26.1089 11.2477C26.2012 11.242 26.2907 11.2306 26.3801 11.222C26.6373 11.1962 26.8889 11.1676 27.1294 11.1361L27.4984 11.0932C28.0883 11.0217 28.6418 10.9416 29.1674 10.8557C29.5364 10.7985 29.8971 10.7384 30.2493 10.6726C34.468 19.5941 33.3274 29.1251 27.9457 40.0323Z" fill="white"/>
<path d="M25.8461 59.223C23.4334 59.4634 20.7244 59.5893 17.9986 59.5893C13.6206 59.5893 9.46342 59.2745 6.29032 58.7023C1.89831 57.9097 1.47336 57.017 1.46777 57.017V9.36786C1.68584 9.48803 1.92627 9.59962 2.18626 9.70549C2.18626 9.70549 2.18626 9.70549 2.18906 9.70549C6.80753 11.6054 17.4255 11.634 17.9986 11.634C18.3341 11.634 18.6696 11.6311 19.0023 11.6283H19.0694C19.307 11.6254 19.5419 11.6226 19.7739 11.6168C20.2296 11.6083 20.6797 11.5968 21.1242 11.5796C21.4457 11.5682 21.7588 11.5567 22.0719 11.5424C22.399 11.5281 22.7261 11.511 23.0393 11.4909C23.2042 11.4824 23.3636 11.4709 23.5117 11.4623C23.6767 11.4509 23.8416 11.4423 23.987 11.4309C24.2079 11.4137 24.4287 11.3965 24.6468 11.3793L24.9068 11.3593C25.2087 11.3364 25.5106 11.3078 25.8014 11.2792C25.9048 11.2706 26.0055 11.2592 26.1089 11.2477C30.4814 19.5369 29.9893 28.839 25.6812 39.7433C22.6842 47.3372 24.5266 55.263 25.8461 59.223Z" fill="#27AE60"/>
<path d="M9.13379 46.5704C9.13379 46.1813 9.27078 45.8837 9.54196 45.6748C9.75723 45.506 10.0172 45.423 10.3247 45.423C10.8755 45.423 11.5017 45.6119 12.2062 45.9896C12.8129 46.3215 13.3581 46.7335 13.8389 47.2257C14.152 47.5518 14.3058 47.8065 14.3058 47.9925C14.3058 48.1155 14.2471 48.2271 14.1269 48.333C14.043 48.4074 13.9452 48.4474 13.8389 48.4474C13.6404 48.4474 13.414 48.27 13.1596 47.9152C12.7961 47.4145 12.3991 47.0196 11.9686 46.7221C11.3452 46.2871 10.8168 46.0697 10.3863 46.0697C10.2101 46.0697 10.0787 46.1097 9.99486 46.187C9.91099 46.2643 9.86626 46.3816 9.86626 46.5389C9.86626 46.8594 10.0927 47.3115 10.5456 47.8981C11.0572 48.5647 11.7505 49.2715 12.6312 50.0125C13.7495 50.9596 14.8482 51.6778 15.9329 52.1728C17.054 52.6793 18.0129 52.9339 18.8068 52.9339C19.1871 52.9339 19.5114 52.8223 19.7769 52.5934C20.0789 52.3445 20.2271 52.0383 20.2271 51.6778C20.2271 51.0512 19.7518 50.2615 18.7985 49.3087C18.5105 49.0254 18.0884 48.6792 17.5404 48.2729C17.1881 48.0068 16.9393 47.8351 16.7912 47.7579C16.6262 47.672 16.5451 47.569 16.5451 47.4517C16.5451 47.3229 16.6038 47.26 16.7241 47.26C16.9785 47.26 17.5516 47.5862 18.4434 48.2357C19.1871 48.7765 19.7937 49.3716 20.2634 50.0211C20.7918 50.7536 21.0546 51.4432 21.0546 52.0927C21.0546 52.7708 20.7582 53.2973 20.16 53.6693C19.7797 53.9068 19.3464 54.027 18.8572 54.027C17.6327 54.027 16.0866 53.4347 14.2191 52.2501C12.6312 51.24 11.3508 50.1756 10.3807 49.054C9.55035 48.0898 9.13379 47.26 9.13379 46.5704Z" fill="white"/>
<path d="M14.5879 43.6004C14.5879 43.1254 14.8703 42.8851 15.4378 42.8851C16.1926 42.8851 17.1487 43.2427 18.3062 43.9552C19.5586 44.7335 20.1876 45.486 20.1876 46.2099C20.1876 46.5475 20.0339 46.7936 19.7292 46.951C19.5754 47.0311 19.3909 47.074 19.1756 47.074C18.4487 47.074 17.6603 46.8193 16.8105 46.3072C16.0221 45.8322 15.4098 45.2714 14.9737 44.6276C14.7137 44.2499 14.5879 43.9066 14.5879 43.6004ZM17.8029 44.5046C17.6883 44.6505 17.6016 44.722 17.5401 44.722C17.4954 44.722 17.3696 44.6305 17.1655 44.4445C16.5924 43.9209 16.1311 43.6605 15.7789 43.6605C15.7341 43.6605 15.6894 43.6748 15.6419 43.7034C15.558 43.7492 15.5133 43.8236 15.5133 43.9209C15.5133 44.1068 15.6894 44.3787 16.0416 44.7392C16.4945 45.2027 16.9642 45.5575 17.4451 45.8007C17.9958 46.084 18.4515 46.2271 18.815 46.2271C18.91 46.2271 18.9967 46.2013 19.0694 46.1498C19.1728 46.0754 19.2231 45.9781 19.2231 45.8637C19.2231 45.5861 19.019 45.2857 18.6109 44.9681C18.4403 44.8279 18.2642 44.7163 18.0825 44.6276C17.9036 44.5418 17.8085 44.4988 17.8029 44.5046Z" fill="white"/>
<path d="M17.2501 41.3972C17.6919 41.5717 18.0497 41.7034 18.3209 41.7892C18.5921 41.875 18.7822 41.9208 18.8912 41.9208C19.0338 41.9208 19.1037 41.8521 19.1037 41.7119C19.1037 41.5031 18.9108 41.2341 18.525 40.9022C18.3377 40.7448 17.9994 40.5131 17.5129 40.2069C17.32 40.0839 17.225 39.958 17.225 39.8235C17.225 39.6718 17.2949 39.5974 17.4375 39.5974C17.6807 39.5974 18.1755 39.8836 18.9192 40.4587C19.6964 41.0567 20.085 41.6118 20.085 42.1211C20.085 42.3414 19.9955 42.5217 19.8138 42.6619C19.6824 42.7592 19.5258 42.8107 19.3385 42.8107C19.0198 42.8107 18.5809 42.7105 18.019 42.516C17.457 42.3185 16.7749 42.0267 15.9697 41.6375C13.9233 40.639 12.2347 39.6203 10.9067 38.5817C9.84159 37.7519 9.30762 37.0623 9.30762 36.5187C9.30762 36.3441 9.37192 36.2011 9.50332 36.0924C9.63471 35.975 9.78288 35.9178 9.95342 35.9178C10.7474 35.9178 12.0698 36.6446 13.9177 38.0953C14.7396 38.7448 15.5616 39.523 16.3863 40.4301C16.5988 40.659 16.8867 40.9852 17.2501 41.3972ZM15.897 40.7792C14.8878 39.5717 13.6102 38.493 12.0698 37.5402C11.2702 37.048 10.739 36.7991 10.479 36.7991C10.3532 36.7991 10.2917 36.8535 10.2917 36.9651C10.2917 37.2855 10.9123 37.8664 12.1536 38.7076C13.174 39.4029 14.4237 40.0953 15.897 40.7792Z" fill="white"/>
<path d="M18.6699 36.4329C18.9997 36.6246 19.2765 36.8134 19.503 36.9994C19.9447 37.3656 20.1655 37.729 20.1655 38.0867C20.1655 38.4014 20.0202 38.6446 19.7322 38.8192C19.5449 38.9308 19.324 38.9851 19.0696 38.9851C18.4406 38.9851 17.7445 38.782 16.9841 38.3757C16.1398 37.9236 15.4884 37.3771 15.0355 36.739C14.7419 36.3213 14.5938 35.9178 14.5938 35.5287C14.5938 35.2855 14.6664 35.0823 14.8146 34.9192C14.946 34.779 15.0914 34.7104 15.2563 34.7104C15.3821 34.7104 15.5555 34.759 15.7763 34.8591C15.8965 34.7704 16 34.7275 16.0922 34.7275C16.2125 34.7275 16.4081 34.8076 16.6793 34.9707C16.9561 35.1396 17.3251 35.3084 17.7864 35.4772C18.2757 35.6574 18.6671 35.7461 18.9606 35.7461C19.1982 35.7461 19.3939 35.6746 19.5477 35.5287C19.5868 35.4886 19.6539 35.3685 19.7434 35.171C19.8105 35.0251 19.9307 34.9536 20.1012 34.9536C20.2103 34.9536 20.2969 34.9936 20.364 35.0766C20.4367 35.1624 20.4759 35.2654 20.4759 35.3828C20.4759 35.6975 20.3389 35.9665 20.0677 36.1925C19.8468 36.3785 19.5673 36.4701 19.2346 36.4701C19.12 36.4701 18.9327 36.4586 18.6699 36.4329ZM15.8714 35.3456C15.7456 35.4142 15.6533 35.4915 15.5946 35.5716C15.5359 35.6517 15.5051 35.7404 15.5051 35.832C15.5051 36.2726 15.8826 36.7533 16.6374 37.2683C17.4705 37.8377 18.1778 38.121 18.7565 38.121C18.8991 38.121 19.0053 38.0924 19.0808 38.038C19.1535 37.9837 19.1927 37.9007 19.1927 37.7891C19.1927 37.5116 18.9047 37.1854 18.326 36.8134C18.0073 36.6045 17.5404 36.347 16.9226 36.038C16.52 35.8348 16.2544 35.6861 16.123 35.5945C16.0503 35.5516 15.9692 35.4686 15.8714 35.3456Z" fill="white"/>
<path d="M12.3184 28.9048C12.3184 28.5156 12.4553 28.2181 12.7265 28.0092C12.9418 27.8404 13.2018 27.7574 13.5093 27.7574C14.0601 27.7574 14.6863 27.9462 15.3908 28.3239C15.9975 28.6558 16.5426 29.0679 17.0235 29.56C17.3366 29.8862 17.4904 30.1408 17.4904 30.3268C17.4904 30.4499 17.4317 30.5615 17.3114 30.6673C17.2276 30.7417 17.1297 30.7818 17.0235 30.7818C16.825 30.7818 16.5985 30.6044 16.3441 30.2496C15.9807 29.7488 15.5837 29.354 15.1532 29.0564C14.5297 28.6215 14.0014 28.404 13.5708 28.404C13.3947 28.404 13.2633 28.4441 13.1794 28.5213C13.0956 28.5986 13.0508 28.7159 13.0508 28.8733C13.0508 29.1938 13.2773 29.6458 13.7302 30.2324C14.2418 30.8991 14.9351 31.6058 15.8158 32.3469C16.934 33.294 18.0327 34.0122 19.1175 34.5072C20.2413 35.0193 21.2002 35.274 21.9942 35.274C22.3744 35.274 22.6987 35.1595 22.9643 34.9335C23.2663 34.6846 23.4144 34.3784 23.4144 34.0179C23.4144 33.3913 22.9392 32.6016 21.9858 31.6487C21.6979 31.3655 21.2757 31.0193 20.7278 30.613C20.3755 30.3469 20.1267 30.1752 19.9785 30.0979C19.8136 30.0121 19.7325 29.9091 19.7325 29.7918C19.7325 29.663 19.7912 29.6001 19.9114 29.6001C20.1658 29.6001 20.739 29.9262 21.6308 30.5758C22.3744 31.1165 22.9811 31.7117 23.4508 32.3612C23.9792 33.0937 24.2419 33.7833 24.2419 34.4328C24.2419 35.1109 23.9456 35.6374 23.3473 36.0094C22.9671 36.2468 22.5338 36.367 22.0445 36.367C20.82 36.367 19.274 35.7747 17.4065 34.5902C15.8186 33.5801 14.5381 32.5157 13.568 31.3941C12.7349 30.427 12.3184 29.5972 12.3184 28.9048Z" fill="white"/>
<path d="M17.7725 25.9376C17.7725 25.4626 18.0548 25.2223 18.6223 25.2223C19.3772 25.2223 20.3333 25.58 21.4907 26.2924C22.7432 27.0707 23.3722 27.8232 23.3722 28.5471C23.3722 28.8847 23.2184 29.1308 22.9137 29.2882C22.76 29.3683 22.5754 29.4112 22.3602 29.4112C21.6333 29.4112 20.8449 29.1566 19.995 28.6444C19.2066 28.1694 18.5944 27.6086 18.1583 26.9648C17.8983 26.5871 17.7725 26.2438 17.7725 25.9376ZM20.9875 26.8418C20.8729 26.9877 20.7862 27.0592 20.7247 27.0592C20.68 27.0592 20.5542 26.9677 20.3501 26.7817C19.777 26.2581 19.3157 25.9977 18.9634 25.9977C18.9187 25.9977 18.874 26.012 18.8264 26.0406C18.7426 26.0864 18.6978 26.1608 18.6978 26.2581C18.6978 26.4441 18.874 26.7159 19.2262 27.0764C19.6791 27.5399 20.1488 27.8947 20.6296 28.1379C21.1804 28.4212 21.6361 28.5643 21.9995 28.5643C22.0946 28.5643 22.1813 28.5385 22.2539 28.487C22.3574 28.4126 22.4077 28.3153 22.4077 28.2009C22.4077 27.9233 22.2036 27.6229 21.7954 27.3053C21.6249 27.1651 21.4488 27.0535 21.2671 26.9648C21.0881 26.8761 20.9931 26.8361 20.9875 26.8418Z" fill="white"/>
<path d="M20.4337 23.7344C20.8755 23.9089 21.2333 24.0406 21.5045 24.1264C21.7757 24.2122 21.9658 24.258 22.0748 24.258C22.2174 24.258 22.2873 24.1894 22.2873 24.0491C22.2873 23.8403 22.0944 23.5713 21.7086 23.2394C21.5213 23.082 21.183 22.8503 20.6965 22.5441C20.5064 22.4182 20.4086 22.2923 20.4086 22.1578C20.4086 22.0062 20.4785 21.9318 20.6211 21.9318C20.8643 21.9318 21.3591 22.2179 22.1028 22.793C22.88 23.3911 23.2686 23.9461 23.2686 24.4555C23.2686 24.6758 23.1791 24.856 22.9974 24.9962C22.866 25.0935 22.7094 25.145 22.5221 25.145C22.2034 25.145 21.7645 25.0449 21.2026 24.8503C20.6406 24.6529 19.9585 24.361 19.1533 23.9719C17.1069 22.9733 15.4183 21.9547 14.0903 20.916C13.0252 20.0863 12.4912 19.3967 12.4912 18.853C12.4912 18.6785 12.5555 18.5354 12.6869 18.4267C12.8183 18.3094 12.9665 18.2522 13.137 18.2522C13.931 18.2522 15.2533 18.9789 17.1013 20.4296C17.9232 21.0791 18.7452 21.8574 19.5699 22.7644C19.7824 22.9962 20.0731 23.3224 20.4337 23.7344ZM19.0806 23.1135C18.0714 21.906 16.7938 20.8273 15.2533 19.8745C14.4538 19.3824 13.9226 19.1334 13.6626 19.1334C13.5368 19.1334 13.4753 19.1878 13.4753 19.2994C13.4753 19.6199 14.0959 20.2007 15.3372 21.0419C16.3604 21.7401 17.6073 22.4297 19.0806 23.1135Z" fill="white"/>
<path d="M21.8574 18.7701C22.1872 18.9618 22.464 19.1506 22.6905 19.3366C23.1322 19.7029 23.353 20.0662 23.353 20.4239C23.353 20.7386 23.2077 20.9819 22.9197 21.1564C22.7324 21.268 22.5115 21.3224 22.2571 21.3224C21.6281 21.3224 20.932 21.1192 20.1716 20.7129C19.3273 20.2608 18.6759 19.7143 18.223 19.0762C17.9294 18.6585 17.7812 18.255 17.7812 17.8659C17.7812 17.6227 17.8539 17.4195 18.0021 17.2565C18.1335 17.1162 18.2789 17.0476 18.4438 17.0476C18.5696 17.0476 18.743 17.0962 18.9638 17.1964C19.084 17.1077 19.1875 17.0647 19.2797 17.0647C19.3999 17.0647 19.5956 17.1449 19.8668 17.308C20.1436 17.4768 20.5126 17.6456 20.9739 17.8144C21.4632 17.9947 21.8546 18.0834 22.1481 18.0834C22.3857 18.0834 22.5814 18.0118 22.7352 17.8659C22.7743 17.8258 22.8414 17.7057 22.9309 17.5082C22.998 17.3623 23.1182 17.2908 23.2887 17.2908C23.3978 17.2908 23.4844 17.3308 23.5515 17.4138C23.6242 17.4997 23.6634 17.6027 23.6634 17.72C23.6634 18.0347 23.5264 18.3037 23.2552 18.5297C23.0343 18.7157 22.7548 18.8073 22.4221 18.8073C22.3047 18.8044 22.1174 18.793 21.8574 18.7701ZM19.0561 17.6828C18.9303 17.7515 18.838 17.8287 18.7793 17.9088C18.7206 17.9889 18.6898 18.0776 18.6898 18.1692C18.6898 18.6098 19.0673 19.0905 19.8221 19.6056C20.6552 20.175 21.3625 20.4582 21.9412 20.4582C22.0838 20.4582 22.19 20.4296 22.2655 20.3753C22.3382 20.3209 22.3774 20.2379 22.3774 20.1263C22.3774 19.8488 22.0894 19.5226 21.5107 19.1506C21.192 18.9418 20.7251 18.6842 20.1073 18.3752C19.7047 18.1721 19.4391 18.0233 19.3077 17.9317C19.235 17.8888 19.1539 17.803 19.0561 17.6828Z" fill="white"/>
</svg>
